<?xml version="1.0" encoding="UTF-8" standalone="no" ?>
<!DOCTYPE svg PUBLIC "-//W3C//DTD SVG 1.1//EN" "http://www.w3.org/Graphics/SVG/1.1/DTD/svg11.dtd">
<svg xmlns="http://www.w3.org/2000/svg" xmlns:xlink="http://www.w3.org/1999/xlink" version="1.1" width="1080" height="1080" viewBox="0 0 1080 1080" xml:space="preserve">
<desc>Created with Fabric.js 5.2.4</desc>
<defs>
</defs>
<rect x="0" y="0" width="100%" height="100%" fill="transparent"></rect>
<g transform="matrix(1 0 0 1 540 540)" id="b8bce2dd-5031-4174-9be0-c820d0fe7537"  >
<rect style="stroke: none; stroke-width: 1; stroke-dasharray: none; stroke-linecap: butt; stroke-dashoffset: 0; stroke-linejoin: miter; stroke-miterlimit: 4; fill: rgb(255,255,255); fill-rule: nonzero; opacity: 1; visibility: hidden;" vector-effect="non-scaling-stroke"  x="-540" y="-540" rx="0" ry="0" width="1080" height="1080" />
</g>
<g transform="matrix(1 0 0 1 540 540)" id="4c3b1b47-2d61-41f0-9c80-121d49b01542"  >
</g>
<g transform="matrix(NaN NaN NaN NaN 0 0)"  >
<g style=""   >
</g>
</g>
<g transform="matrix(NaN NaN NaN NaN 0 0)"  >
<g style=""   >
</g>
</g>
<g transform="matrix(1 0 0 1 540 540)"  >
<g style="" vector-effect="non-scaling-stroke"   >
		<g transform="matrix(1 0 0 1 0 48)"  >
<path style="stroke: none; stroke-width: 1; stroke-dasharray: none; stroke-linecap: butt; stroke-dashoffset: 0; stroke-linejoin: miter; stroke-miterlimit: 4; fill: rgb(220,53,69); fill-rule: nonzero; opacity: 0.4;" vector-effect="non-scaling-stroke"  transform=" translate(-224, -304)" d="M 416 96 L 32 96 L 32 448 C 32 483.3 60.7 512 96 512 L 352 512 C 387.3 512 416 483.3 416 448 L 416 96 z M 143 207 C 152.4 197.6 167.6 197.6 176.9 207 L 223.9 254 L 270.9 207 C 280.29999999999995 197.6 295.5 197.6 304.79999999999995 207 C 314.0999999999999 216.4 314.19999999999993 231.6 304.79999999999995 240.9 L 257.79999999999995 287.9 L 304.79999999999995 334.9 C 314.19999999999993 344.29999999999995 314.19999999999993 359.5 304.79999999999995 368.79999999999995 C 295.4 378.0999999999999 280.19999999999993 378.19999999999993 270.9 368.79999999999995 L 223.89999999999998 321.79999999999995 L 176.89999999999998 368.79999999999995 C 167.49999999999997 378.19999999999993 152.29999999999998 378.19999999999993 142.99999999999997 368.79999999999995 C 133.69999999999996 359.4 133.59999999999997 344.19999999999993 142.99999999999997 334.9 L 189.99999999999997 287.9 L 142.99999999999997 240.89999999999998 C 133.59999999999997 231.49999999999997 133.59999999999997 216.29999999999998 142.99999999999997 206.99999999999997 z" stroke-linecap="round" />
</g>
		<g transform="matrix(1 0 0 1 0 -68.07)"  >
<path style="stroke: none; stroke-width: 1; stroke-dasharray: none; stroke-linecap: butt; stroke-dashoffset: 0; stroke-linejoin: miter; stroke-miterlimit: 4; fill: rgb(220,53,69); fill-rule: nonzero; opacity: 1;" vector-effect="non-scaling-stroke"  transform=" translate(-224, -187.93)" d="M 135.2 17.7 C 140.6 6.8 151.7 0 163.8 0 L 284.2 0 C 296.3 0 307.4 6.8 312.8 17.7 L 320 32 L 416 32 C 433.7 32 448 46.3 448 64 C 448 81.7 433.7 96 416 96 L 32 96 C 14.3 96 0 81.7 0 64 C 0 46.3 14.3 32 32 32 L 128 32 L 135.2 17.7 z M 143 207 C 152.4 197.6 167.6 197.6 176.9 207 L 223.9 254 L 270.9 207 C 280.29999999999995 197.6 295.5 197.6 304.79999999999995 207 C 314.0999999999999 216.4 314.19999999999993 231.6 304.79999999999995 240.9 L 257.79999999999995 287.9 L 304.79999999999995 334.9 C 314.19999999999993 344.29999999999995 314.19999999999993 359.5 304.79999999999995 368.79999999999995 C 295.4 378.0999999999999 280.19999999999993 378.19999999999993 270.9 368.79999999999995 L 223.89999999999998 321.79999999999995 L 176.89999999999998 368.79999999999995 C 167.49999999999997 378.19999999999993 152.29999999999998 378.19999999999993 142.99999999999997 368.79999999999995 C 133.69999999999996 359.4 133.59999999999997 344.19999999999993 142.99999999999997 334.9 L 189.99999999999997 287.9 L 142.99999999999997 240.89999999999998 C 133.59999999999997 231.49999999999997 133.59999999999997 216.29999999999998 142.99999999999997 206.99999999999997 z" stroke-linecap="round" />
</g>
</g>
</g>
<g transform="matrix(NaN NaN NaN NaN 0 0)"  >
<g style=""   >
</g>
</g>
<g transform="matrix(NaN NaN NaN NaN 0 0)"  >
<g style=""   >
</g>
</g>
</svg>